<svg preserveAspectRatio="none" overflow="visible" style="display: block;" width="18" height="18" viewBox="0 0 18 18" fill="none" xmlns="http://www.w3.org/2000/svg">
<g id="Group 1261154569">
<path id="Vector" d="M9 0C9.7001 4.2554e-05 10.3762 0.255063 10.9019 0.717383L11.0406 0.847898L11.6688 1.47617C11.8413 1.64747 12.0664 1.75561 12.3079 1.78311L12.4294 1.79031H13.3296C14.0652 1.79027 14.7729 2.07165 15.3076 2.57676C15.8424 3.08187 16.1636 3.77243 16.2054 4.50682L16.2099 4.67064V5.57074C16.2099 5.81377 16.2928 6.0505 16.4422 6.23952L16.5232 6.32953L17.1506 6.9578C17.6706 7.47486 17.9738 8.1708 17.9984 8.90371C18.023 9.63662 17.7671 10.3513 17.2829 10.9021L17.1524 11.0407L16.5241 11.6689C16.3528 11.8414 16.2446 12.0665 16.2171 12.308L16.2099 12.4295V13.3296C16.21 14.0652 15.9286 14.7729 15.4235 15.3077C14.9184 15.8424 14.2278 16.1636 13.4934 16.2055L13.3296 16.21H12.4294C12.1868 16.2101 11.9512 16.2919 11.7607 16.4422L11.6706 16.5232L11.0424 17.1506C10.5253 17.6706 9.82935 17.9738 9.09643 17.9984C8.36351 18.023 7.64881 17.7671 7.09805 17.2829L6.95943 17.1524L6.33115 16.5241C6.15872 16.3528 5.93356 16.2447 5.69207 16.2172L5.57055 16.21H4.67043C3.93484 16.21 3.22711 15.9286 2.69236 15.4235C2.15762 14.9184 1.8364 14.2278 1.79456 13.4935L1.79006 13.3296V12.4295C1.78998 12.1868 1.70817 11.9513 1.55783 11.7608L1.47682 11.6707L0.849435 11.0425C0.32942 10.5254 0.0262077 9.82948 0.00162089 9.09657C-0.0229659 8.36366 0.232925 7.64897 0.717117 7.09822L0.847634 6.9596L1.47592 6.33133C1.64722 6.15891 1.75536 5.93375 1.78286 5.69226L1.79006 5.57074V4.67064L1.79456 4.50682C1.83475 3.80064 2.13339 3.13394 2.63355 2.63378C3.13371 2.13363 3.80042 1.835 4.50661 1.79481L4.67043 1.79031H5.57055C5.81324 1.79023 6.04883 1.70842 6.23934 1.55808L6.32935 1.47707L6.95763 0.849698C7.22527 0.580467 7.54349 0.366797 7.89399 0.220975C8.2445 0.0751527 8.62037 5.49748e-05 9 0ZM12.3277 6.55456C12.1589 6.38581 11.93 6.29102 11.6914 6.29102C11.4527 6.29102 11.2238 6.38581 11.055 6.55456L8.09088 9.5177L6.92703 8.35476L6.84242 8.28006C6.6615 8.14017 6.43412 8.07439 6.20646 8.09608C5.9788 8.11776 5.76793 8.22529 5.61668 8.39682C5.46543 8.56835 5.38514 8.79101 5.39212 9.0196C5.3991 9.24818 5.49283 9.46553 5.65426 9.62751L7.4545 11.4277L7.53911 11.5024C7.7123 11.6368 7.92855 11.7033 8.1473 11.6895C8.36605 11.6758 8.57227 11.5827 8.72726 11.4277L12.3277 7.8273L12.4024 7.74269C12.5368 7.56951 12.6033 7.35326 12.5896 7.13451C12.5758 6.91576 12.4827 6.70955 12.3277 6.55456Z" fill="#4F008B"/>
</g>
</svg>
